<?xml version="1.0" standalone="no"?>
<!DOCTYPE svg PUBLIC "-//W3C//DTD SVG 20010904//EN"
 "http://www.w3.org/TR/2001/REC-SVG-20010904/DTD/svg10.dtd">
<svg version="1.0" xmlns="http://www.w3.org/2000/svg"
 width="485.000000pt" height="78.000000pt" viewBox="0 0 485.000000 78.000000"
 preserveAspectRatio="xMidYMid meet">

<g transform="translate(0.000000,78.000000) scale(0.100000,-0.100000)"
fill="#000000" stroke="none">
<path d="M295 771 c-112 -29 -207 -107 -258 -210 -29 -61 -32 -73 -32 -171 0
-95 3 -111 29 -167 34 -74 121 -162 193 -195 40 -19 66 -22 163 -23 104 0 120
2 172 27 154 72 245 247 217 418 -14 87 -42 145 -104 209 -77 81 -151 114
-265 117 -47 2 -98 0 -115 -5z m147 -116 c14 -28 30 -62 33 -77 l7 -28 -74 0
c-62 0 -75 3 -86 20 -10 17 -9 27 9 63 47 92 71 97 111 22z m-193 -12 c-13
-36 -78 -92 -107 -93 l-23 0 23 31 c23 31 95 89 110 89 4 0 3 -12 -3 -27z
m377 -45 l39 -43 -39 -3 c-53 -5 -60 0 -75 48 -7 23 -15 49 -18 57 -10 27 49
-11 93 -59z m-438 -140 c7 -7 12 -42 12 -85 l0 -73 -54 0 c-30 0 -58 5 -61 10
-9 14 -9 135 -1 149 10 15 89 14 104 -1z m320 -50 c3 -49 0 -57 -18 -63 -11
-3 -25 -15 -30 -26 -9 -16 -22 -19 -95 -19 l-84 0 -7 57 c-7 55 -6 57 27 85
32 26 39 28 119 25 l85 -2 3 -57z m196 40 c8 -30 8 -78 0 -117 -6 -29 -10 -31
-47 -31 -62 0 -77 20 -77 102 l0 68 59 0 c52 0 59 -2 65 -22z m-467 -284 l21
-65 -26 17 c-37 23 -70 54 -94 87 l-19 27 48 0 48 0 22 -66z m222 45 c11 -19
9 -28 -16 -78 -22 -43 -34 -57 -54 -59 -23 -3 -29 5 -57 66 -18 38 -32 74 -32
80 0 8 24 12 73 12 63 0 74 -3 86 -21z m201 13 c0 -13 -83 -93 -113 -108 l-28
-15 15 35 c18 44 74 95 104 96 12 0 22 -4 22 -8z"/>
<path d="M1129 685 c-49 -16 -109 -67 -136 -118 -27 -49 -24 -170 4 -224 62
-116 210 -158 334 -95 l54 27 3 118 3 117 -86 0 -85 0 0 -50 c0 -49 1 -50 31
-50 29 0 30 -2 27 -37 -2 -30 -8 -38 -31 -46 -40 -13 -93 0 -129 32 -39 35
-51 115 -24 166 34 62 119 84 193 49 34 -17 34 -17 69 17 19 18 34 36 34 39 0
4 -22 19 -49 33 -61 34 -148 43 -212 22z"/>
<path d="M4421 646 c-22 -26 -9 -69 22 -80 36 -13 61 2 65 38 4 35 -14 56 -48
56 -15 0 -33 -6 -39 -14z"/>
<path d="M1478 533 c-16 -4 -18 -20 -18 -159 l0 -154 50 0 50 0 0 104 c0 96 2
106 21 120 15 10 28 12 45 6 25 -10 24 -13 40 68 4 19 0 22 -31 22 -20 0 -45
-5 -56 -10 -13 -7 -19 -7 -19 0 0 10 -49 12 -82 3z"/>
<path d="M1772 520 c-55 -34 -74 -75 -70 -153 3 -62 6 -70 41 -104 34 -35 42
-38 104 -41 55 -2 74 1 101 17 49 31 72 76 72 141 0 65 -24 110 -72 140 -45
27 -131 27 -176 0z m132 -81 c20 -16 26 -29 26 -59 0 -30 -6 -43 -26 -59 -34
-27 -57 -26 -90 2 -20 17 -27 33 -27 57 0 24 7 40 27 57 33 28 56 29 90 2z"/>
<path d="M2060 443 c0 -120 12 -164 50 -197 28 -23 37 -25 140 -25 l110 0 0
160 0 159 -50 0 -50 0 0 -103 c0 -90 -3 -106 -19 -121 -25 -23 -59 -13 -72 21
-5 13 -9 65 -9 114 l0 89 -50 0 -50 0 0 -97z"/>
<path d="M2443 532 l-23 -3 0 -220 0 -219 50 0 50 0 0 69 0 69 44 -5 c60 -7
89 1 130 37 80 71 62 215 -33 265 -26 13 -157 17 -218 7z m200 -104 c34 -40
18 -97 -33 -118 -28 -11 -34 -11 -58 7 -43 32 -43 110 0 131 30 15 69 6 91
-20z"/>
<path d="M2852 519 c-94 -61 -95 -213 -2 -276 45 -32 138 -32 188 -1 40 24 71
86 72 139 0 50 -38 118 -80 140 -49 27 -135 25 -178 -2z m122 -70 c50 -23 57
-103 13 -134 -31 -22 -65 -18 -92 10 -39 38 -29 106 18 125 30 12 32 12 61 -1z"/>
<path d="M3178 533 c-16 -4 -18 -20 -18 -159 l0 -154 45 0 45 0 0 99 c0 96 1
100 27 120 23 19 29 20 47 7 19 -12 21 -25 24 -120 l3 -106 49 0 50 0 0 104
c0 95 2 106 21 119 27 19 58 10 70 -20 5 -13 9 -65 9 -114 l0 -89 45 0 45 0 0
126 0 126 -34 34 c-30 30 -40 34 -87 34 -30 -1 -65 -7 -78 -14 -20 -11 -28
-11 -50 0 -31 16 -95 18 -122 4 -13 -7 -19 -7 -19 0 0 10 -39 12 -72 3z"/>
<path d="M3767 525 c-21 -7 -41 -16 -45 -19 -11 -12 27 -61 45 -58 10 1 34 5
53 8 23 4 42 0 54 -9 18 -13 15 -14 -32 -9 -95 9 -142 -31 -142 -121 0 -34 6
-49 26 -68 24 -22 34 -24 145 -27 l119 -2 0 102 c0 131 -12 173 -53 198 -38
24 -113 26 -170 5z m111 -167 c17 -17 15 -45 -4 -52 -39 -15 -94 0 -94 25 0
32 73 52 98 27z"/>
<path d="M4078 533 c-16 -4 -18 -20 -18 -159 l0 -154 45 0 45 0 0 100 c0 86 3
103 20 120 19 19 40 18 68 -3 8 -6 12 -42 12 -113 l0 -104 50 0 50 0 0 115 c0
130 -11 165 -60 190 -34 17 -93 20 -121 5 -13 -7 -19 -7 -19 0 0 10 -39 12
-72 3z"/>
<path d="M4410 380 l0 -160 50 0 50 0 0 160 0 160 -50 0 -50 0 0 -160z"/>
<path d="M4635 528 c-52 -19 -57 -27 -37 -60 13 -22 22 -28 37 -23 50 15 91
17 102 4 9 -12 0 -14 -54 -14 -59 0 -67 -3 -89 -28 -48 -56 -44 -135 8 -167
26 -15 51 -19 140 -19 l108 0 0 124 c0 123 0 125 -29 157 -26 29 -35 32 -92
35 -35 1 -77 -3 -94 -9z m103 -167 c22 -14 10 -56 -17 -59 -39 -6 -71 7 -71
28 0 32 56 52 88 31z"/>
</g>
</svg>
